PathFileType	4	(X/Y/Z)	Kaydara	
DataRate	CameraRate	NumFrames	NumMarkers	Units	OrigDataRate	OrigDataStartFrame	OrigNumFrames	
240.00	240.00	4	72	mm	240.00	90	359	
Frame#	Time	Hips			RightUpLeg			RightLeg			RightFoot			RightFoot_End			LeftUpLeg			LeftLeg			LeftFoot			LeftFoot_End			Spine			Spine1			Spine2			Spine3			Neck			Head			Head_End			RightShoulder			RightArm			RightForeArm			RightHand			RightHandThumb1			RightHandThumb2			RightHandThumb3			RightHandThumb3_End			RightInHandIndex			RightHandIndex1			RightHandIndex2			RightHandIndex3			RightHandIndex3_End			RightInHandMiddle			RightHandMiddle1			RightHandMiddle2			RightHandMiddle3			RightHandMiddle3_End			RightInHandRing			RightHandRing1			RightHandRing2			RightHandRing3			RightHandRing3_End			RightInHandPinky			RightHandPinky1			RightHandPinky2			RightHandPinky3			RightHandPinky3_End			LeftShoulder			LeftArm			LeftForeArm			LeftHand			LeftHandThumb1			LeftHandThumb2			LeftHandThumb3			LeftHandThumb3_End			LeftInHandIndex			LeftHandIndex1			LeftHandIndex2			LeftHandIndex3			LeftHandIndex3_End			LeftInHandMiddle			LeftHandMiddle1			LeftHandMiddle2			LeftHandMiddle3			LeftHandMiddle3_End			LeftInHandRing			LeftHandRing1			LeftHandRing2			LeftHandRing3			LeftHandRing3_End			LeftInHandPinky			LeftHandPinky1			LeftHandPinky2			LeftHandPinky3			LeftHandPinky3_End			
		X1	Y1	Z1	X2	Y2	Z2	X3	Y3	Z3	X4	Y4	Z4	X5	Y5	Z5	X6	Y6	Z6	X7	Y7	Z7	X8	Y8	Z8	X9	Y9	Z9	X10	Y10	Z10	X11	Y11	Z11	X12	Y12	Z12	X13	Y13	Z13	X14	Y14	Z14	X15	Y15	Z15	X16	Y16	Z16	X17	Y17	Z17	X18	Y18	Z18	X19	Y19	Z19	X20	Y20	Z20	X21	Y21	Z21	X22	Y22	Z22	X23	Y23	Z23	X24	Y24	Z24	X25	Y25	Z25	X26	Y26	Z26	X27	Y27	Z27	X28	Y28	Z28	X29	Y29	Z29	X30	Y30	Z30	X31	Y31	Z31	X32	Y32	Z32	X33	Y33	Z33	X34	Y34	Z34	X35	Y35	Z35	X36	Y36	Z36	X37	Y37	Z37	X38	Y38	Z38	X39	Y39	Z39	X40	Y40	Z40	X41	Y41	Z41	X42	Y42	Z42	X43	Y43	Z43	X44	Y44	Z44	X45	Y45	Z45	X46	Y46	Z46	X47	Y47	Z47	X48	Y48	Z48	X49	Y49	Z49	X50	Y50	Z50	X51	Y51	Z51	X52	Y52	Z52	X53	Y53	Z53	X54	Y54	Z54	X55	Y55	Z55	X56	Y56	Z56	X57	Y57	Z57	X58	Y58	Z58	X59	Y59	Z59	X60	Y60	Z60	X61	Y61	Z61	X62	Y62	Z62	X63	Y63	Z63	X64	Y64	Z64	X65	Y65	Z65	X66	Y66	Z66	X67	Y67	Z67	X68	Y68	Z68	X69	Y69	Z69	X70	Y70	Z70	X71	Y71	Z71	X72	Y72	Z72	

90	0.371	1198.941	914.58397	126.699	1255.1462344544589	898.0480793868144	53.406853872257706	1160.3276470625897	501.218486198528	-41.7360859381314	1141.6276115759742	109.69466492114228	-117.14504985517117	989.9437043933898	32.92699399239043	-29.755490546934887	1157.2886632554262	905.0248441271416	211.23783658312726	1066.0237181148518	503.2067497679426	286.2513601584747	994.1892283393186	78.88644960495809	378.23910535121945	872.5037241037305	-3.4018493164116363	255.9258958838715	1131.1585296205535	1031.6807503049624	79.79821442769507	1068.8096165949557	1087.9392621622133	30.886816333771073	1001.0379064879614	1139.410749688219	-23.873839085631396	932.6314784841909	1176.9650580825294	-81.70981294608526	858.4228607685133	1217.5930893526104	-141.8176699853924	789.1705342486965	1254.9426407110263	-193.93121084292665	649.5627105531976	1331.9529833548672	-200.57316637393933	904.0818028672068	1206.142045450416	-146.08425643035312	967.0214847674562	1198.4350666646012	-262.79839298393347	1051.2762415630189	936.0055741657379	-303.0602265136071	1063.6207831559607	804.730477270336	-518.4605938669769	1070.7927809015514	816.5546118461356	-547.5263619307896	1053.9923052718264	820.5884467488195	-576.7061079756074	1042.1317766863128	820.1635242754344	-596.8797021572021	1032.1067177436971	817.0426130940663	-613.5716402212961	1073.4056416986514	805.8991381576776	-550.1319988410452	1076.8020148286025	796.3263716998565	-595.9689126470009	1065.647025419792	790.449904015746	-625.3749654511001	1051.1589614771917	790.6047798881324	-638.8519899330568	1034.0724595951006	793.3017724627717	-646.7659963963292	1072.2078650359183	797.4734642766061	-548.0178395494537	1074.8765598207792	783.5788015043981	-591.5829471682761	1062.5183007898816	776.0866856270641	-623.2400512165965	1044.9497344100114	775.7554270680968	-639.2928675953541	1026.2106074857234	778.4545572903786	-647.8517242053147	1071.4118593729067	791.7339863931339	-545.3879644238945	1073.5130565467455	774.2085583164605	-582.2459734482298	1062.5457747471748	766.597063729697	-609.3291270498329	1045.4955148235601	765.7032971123266	-624.5428619339364	1027.8267294673751	767.9690400092016	-632.4621664624735	1069.3176248221412	785.6406225356802	-540.7653433114825	1070.4141909077696	765.7026905055714	-571.8485439384561	1061.3163931073766	757.9973287794141	-592.580185396763	1048.7271896198451	756.5664256835754	-603.2149195275135	1032.9876538400863	758.1251953191908	-609.9641131356598	861.9408036007944	1202.1986683187727	-96.41553066425877	809.3425590972472	1133.9078310578911	5.193238106169178	951.1915653191211	978.1677887701154	-177.62434661903328	1053.7842422545425	867.633551630642	-401.44193859967794	1083.3474998588906	878.4938180274015	-420.78352794892055	1122.8858822022187	869.7575181417865	-429.80041032406075	1149.498946600586	860.5291078750968	-436.93496735977766	1170.896823235288	850.145787887495	-443.61433207611464	1081.9432750072965	869.2960915256896	-427.34274632658844	1125.0841298722353	855.5051718217659	-462.65345773921456	1159.4507704884566	840.1505123100308	-478.04413196553827	1180.6044397192059	831.0757699948334	-479.13581149807743	1197.9702817928182	823.882476652954	-474.32160006889796	1078.1420002983932	860.9500251997163	-428.0032906564267	1118.1629447616883	842.9860297275993	-462.80420836534654	1155.0277121594515	825.1673449404418	-479.5596501352412	1180.2435972698283	813.708564865247	-480.8580495953776	1199.096582747248	805.5896536975183	-475.58135171951375	1074.3139593339088	855.4406214403497	-427.67474276151694	1106.7361100286216	834.6616030045805	-458.88780774907264	1138.1548325394556	818.0714774168474	-473.39618976832287	1162.0990425144519	806.4560299652418	-474.59775018309034	1179.6462268831701	798.5556340854193	-469.6122117520639	1068.9794621273277	849.2132673118178	-425.4392272255783	1095.3026581846443	826.4292696928159	-453.0560624953758	1119.2085592409558	811.5822593404376	-464.38760242246263	1136.0674237027704	802.354185958562	-465.12556390201576	1151.2625319169065	794.9207977244663	-460.62949931788154
91	0.375	1198.941	914.58397	126.699	1255.1428413335766	898.0428888902064	53.4088070920951	1160.3100443373241	501.2247003071778	-41.76609004879459	1141.712615781947	109.70725829172538	-117.22336332928695	990.0322883289726	32.94344634313491	-29.824230908220155	1157.2894949069741	905.0289659679896	211.23634005831383	1066.0236266033207	503.20823446588054	286.23356635509725	994.1665178369336	78.88390026195243	378.177788896875	872.4849791690231	-3.405618814337898	255.8614933854071	1131.170122076707	1031.6857816363479	79.79614764509873	1068.8337432032442	1087.946049743503	30.871831290186112	1001.0777935688394	1139.4212324880984	-23.904044856263464	932.6906341851756	1176.9837155248613	-81.75746213781889	858.5024117643795	1217.6201404819965	-141.8847957341108	789.268496149579	1254.9774919745378	-194.0170063072516	649.7259537817586	1332.0945591221946	-200.71286653624338	904.1486221930984	1206.1514984166638	-146.13535452053682	967.0505171432312	1198.349631812653	-262.7529960383211	1051.1122811237667	936.0889077342874	-302.73160759090274	1063.347249033363	804.9672393810085	-517.9467217043241	1070.513331420755	816.8395057314619	-546.9462485169598	1053.7498391744152	820.9103927086383	-576.089120415923	1041.9164989195667	820.5081942209453	-596.244121379184	1031.915329118957	817.4035959415465	-612.926612137949	1073.126808091455	806.1783062933928	-549.5695445354407	1076.5376609989953	796.6549964742107	-595.365734471809	1065.414077571716	790.8080871123518	-624.7523875370078	1050.9549450673046	790.9773584222828	-638.2196587127579	1033.8987351326118	793.6835680300694	-646.1271392268372	1071.933443171704	797.7423095924662	-547.4764882318484	1074.6186470618263	783.8902864861666	-591.0133008115176	1062.2952141745602	776.4289008898135	-622.6521675506997	1044.7618182483345	776.1142725308753	-638.6946186563492	1026.055969428166	778.8231313860418	-647.2470241021613	1071.1399723227566	791.9943047500623	-544.8625194863097	1073.2575890714556	774.4998078606133	-581.7088149254132	1062.3212116243196	766.9134711316553	-608.7791221241453	1045.3051668575238	766.0348773630419	-623.9844708422269	1027.6678107078128	768.3093596940996	-631.8984632800024	1069.049868605872	785.889378660397	-540.2598248529741	1070.1633388367052	765.9728387230946	-571.3443838058636	1061.091080373101	758.2849408043011	-592.070522121221	1048.5272216712547	756.8638149802949	-602.7014631669651	1032.8157405722316	758.429578820732	-609.4472845066538	862.0197343306663	1202.2379648055758	-96.4860723802134	809.44301427737	1134.1110065426205	5.114372439150471	951.0400772342343	978.3156853288707	-177.46474979092054	1053.5421108547926	868.0473681163236	-401.2185248044766	1083.0491889975883	878.8829127288793	-420.5297189362183	1122.529870745647	870.1270178949468	-429.54189925428136	1149.1046820296638	860.8864747589595	-436.6725399049094	1170.4723132820568	850.4943242978263	-443.3480914272942	1081.64652016833	869.6879281628063	-427.08042339051184	1124.7118134308714	855.8709107513912	-462.3440878643416	1159.0268287016688	840.5004002040628	-477.7202921803863	1180.1532238787506	831.4178578546145	-478.8171833916044	1197.4997512709979	824.2194795552886	-474.0168679701527	1077.853151855738	861.3470135278272	-427.74172233858275	1117.804668977366	843.3603406145372	-462.4971546978005	1154.6143855382747	825.5251220273675	-479.2370864882658	1179.7979927879992	814.0572985853952	-480.54190510177744	1198.6301524913408	805.9330056275562	-475.2804727808447	1074.0326138834848	855.8418895038136	-427.41471072222134	1106.3990128868008	835.0462139597489	-458.587763518488	1137.7711858142616	818.4424930619408	-473.08297431928185	1161.6850226903362	806.8187558106729	-474.29092719227884	1179.2129768870745	798.9135177757537	-469.31982321766276	1068.7090441473047	849.6203766078286	-425.18389813903855	1094.9877871036379	826.824632874903	-452.7662443454358	1118.8588769425453	811.9680842856479	-464.0879773514083	1135.6967789707405	802.7346153316853	-464.83093733681375	1150.8755483429563	795.2973116113549	-460.34786887419205
92	0.379	1198.941	914.58397	126.699	1255.1341254202182	898.0359825585905	53.4075412114999	1160.2893760128338	501.2276179927098	-41.79496740049268	1141.7727933068784	109.71569100669652	-117.29279759368028	990.0955694190261	32.95429778216189	-29.886145585209334	1157.2962597904198	905.0349215100512	211.23753070674934	1066.0288423583133	503.21137635295656	286.21673222912597	994.1480547149957	78.88716450478842	378.1372713626546	872.471590515461	-3.4049597845094186	255.81771536597068	1131.1792176176382	1031.6903606846518	79.7965354285649	1068.8558117896325	1087.9553205689701	30.862078260273638	1001.1141423607181	1139.437098514079	-23.924553997185615	932.7402053561091	1177.0090621685556	-81.78733335892733	858.5657240142647	1217.654121382626	-141.9256037068584	789.3448024443427	1255.0192646793648	-194.06921310179746	649.8551721063677	1332.2212952021432	-200.82263863059467	904.1909460386047	1206.1459740784533	-146.1694457353504	967.0467610715453	1198.2402119491976	-262.6902215913133	1050.9096167114958	936.1517206140544	-302.38022499170984	1063.0220884867524	805.1847556069062	-517.3998658469993	1070.1822836433873	817.10490940857	-546.33158449614	1053.4560350829363	821.21421730921	-575.4359422321295	1041.649792091206	820.83575983796	-595.5712786763793	1031.6721997114082	817.7483687928543	-612.2435094256771	1072.7952677949672	806.438054196103	-548.9726386114024	1076.218494546282	796.9647916056001	-594.7261418240123	1065.1254734730187	791.1486448301355	-624.092028650388	1050.6954954918265	791.3333801738573	-637.5487638544575	1033.6702565624325	794.0499227662067	-645.4491261873305	1071.6056653078297	797.9919086453554	-546.9009807715836	1074.3049667724024	784.1832302913343	-590.407713986741	1062.0153772911676	776.7539055045647	-622.0268894258455	1044.5173882752083	776.4572101549754	-638.0580532960065	1025.8455478599706	779.1770229781363	-646.6033625934926	1070.8143317024158	792.2355042537278	-544.3031507061995	1072.9458054941238	774.7726411076538	-581.1363625431376	1062.0394020032495	767.2126367827607	-608.1925752278204	1045.0577603653096	766.35048156039	-623.3886852494032	1027.452498898708	768.6348559235798	-631.2967900779236	1068.7280059967484	786.1191858650385	-539.7207150099981	1069.8558081947035	766.2247551833178	-570.8055645970252	1060.8082253549335	758.5553001849561	-591.5252977625257	1048.269788761664	757.1448853194579	-602.151846380573	1032.5869337905813	758.718672930399	-608.8938153026166	862.095672405575	1202.306587843855	-96.52679795967094	809.5408566429328	1134.3461689695039	5.06445545010623	950.8810685196727	978.4956769481181	-177.2708504715346	1053.2213523530147	868.3358679605498	-400.90947716791334	1082.6859754414868	879.1733545791307	-420.16195037441213	1122.1060125160388	870.3961981549645	-429.17154385458406	1148.6393439335682	861.1424398014663	-436.3066541632163	1169.9730287550979	850.7406565192025	-442.9913114006943	1081.283468130165	869.9872673835425	-426.7251819189532	1124.2810218419609	856.1798035755111	-461.9613571786757	1158.541646287767	840.7999774103029	-477.3428623390602	1179.634881008068	831.7008334416499	-478.4534736886103	1196.9544001355284	824.4814336250744	-473.6715472647442	1077.4941576213544	861.6496066338801	-427.4056756080788	1117.3818033681682	843.674026451232	-462.14466445614954	1154.1329126596784	825.8290124636281	-478.89302135478687	1179.276865330317	814.3413392029045	-480.215673458839	1198.0796472640523	806.1941372670948	-474.97498000495517	1073.6782760788246	856.1467056898952	-427.0927145358055	1105.9916823987276	835.3634183091713	-458.26259468798327	1137.313627304117	818.7515367781048	-472.7679020707726	1161.1896717645268	807.1088553647504	-473.9944898079936	1178.6902335037657	799.1821508758154	-469.04359092776645	1068.3615341525754	849.9261187045338	-424.8805540174481	1094.5960635367344	827.1428881522513	-452.47078202817687	1118.4285128438432	812.2803164530584	-463.8048712999703	1135.2396145528467	803.0332853762528	-464.5635165558507	1150.394548546003	795.5771083583531	-460.099533416772
93	0.383	1198.941	914.58397	126.699	1255.0943336166602	898.0022857194288	53.391294980280705	1160.26267273736	501.18825269114404	-41.799951330469405	1141.742092368508	109.67555043638968	-117.29086346498121	990.0652272983614	32.91527612012103	-29.88263544127946	1157.3322304417431	905.0666028087643	211.25363737425891	1066.0505856562156	503.24251653781465	286.211951512829	994.1418847023891	78.92194268295637	378.12255832632206	872.4645892584091	-3.368071596059711	255.80241520882143	1131.1980500461366	1031.7010051820728	79.79801507998512	1068.8849426697036	1087.9712955346463	30.857505832667357	1001.1542578606054	1139.4599725121786	-23.93550744108387	932.7907530497496	1177.0420166931444	-81.80392605119216	858.6272816139884	1217.6986076046583	-141.9478810207404	789.4171145620833	1255.0762160046054	-194.0966988240043	649.922151758996	1332.25931999123	-200.89778983586703	904.2310832132096	1206.1511048378493	-146.18729893657482	966.9711283016145	1198.036936049468	-262.62995594687584	1050.6170958053212	936.1196701921314	-302.0234757595283	1062.5909413059128	805.3081028405513	-516.8435696584002	1069.740941590804	817.2710588829502	-545.7060020638229	1053.0484240520138	821.4174715486072	-574.7662554997859	1041.2667180302863	821.062309603728	-594.8776289541753	1031.3104905139066	817.9921387543424	-611.5356574182779	1072.3524309837806	806.5994035860047	-548.3635055393585	1075.780386434929	797.1728062622351	-594.0674537952539	1064.713687869894	791.3867421262389	-623.4064421080199	1050.3114949040737	791.5873403784008	-636.848948755481	1033.316974144612	794.3150840209622	-644.7392358210095	1071.1666165629672	798.1445720945906	-546.3122964727531	1073.872571306198	784.3767008051843	-589.7817657871611	1061.6122150836502	776.9789040870533	-621.3744565267727	1044.1479955303537	776.7007161223114	-637.3898337541872	1025.5098778367155	779.4324840504971	-645.9247891749674	1070.3776176212282	792.3808448173949	-543.7301408417953	1072.516406886551	774.9482562825549	-580.5434400092303	1061.6359995765058	767.4143317342974	-607.5795628016348	1044.687210722905	766.5692936500818	-622.7620301079163	1027.1137807376358	768.8645644515944	-630.6611515908772	1068.2956141001937	786.2546066814231	-539.1675424902879	1069.4320449095983	766.3819043673502	-570.2461904795546	1060.406052943431	758.731024270736	-590.9545910307738	1047.8919575044051	757.3319722639569	-601.5734986693425	1032.2375147934213	758.9147769916374	-608.3088211357685	862.1721691533035	1202.3835875558318	-96.55019209423503	809.6402719821452	1134.5906057200964	5.030584502890548	950.7106670463061	978.6802842940721	-177.05774060574754	1052.7686990813413	868.3653482161149	-400.4360610272475	1082.189265406476	879.2111167778685	-419.62774684978785	1121.5461532423085	870.413505709547	-428.6412135976186	1148.0361013329173	861.1472293185077	-435.78650458341974	1169.3341299353015	850.7364555167907	-442.4860374861818	1080.7862215620992	870.0356128068329	-426.20717159207936	1123.711914728311	856.2472483844293	-461.42481628577025	1157.9152219606506	840.8609094058788	-476.82040041498794	1178.973915969821	831.7439670802942	-477.94992507532345	1196.2655766910354	824.5005534987881	-473.19050628626184	1077.0006803771325	861.7009901010737	-426.90993136203144	1116.8202791220465	843.7456857732219	-461.64288726197964	1153.5095836157095	825.8938749765728	-478.4096501504691	1178.6122080983296	814.3848882523064	-479.7565716653323	1197.384674726964	806.2114865078214	-474.54121075929385	1073.1893725144319	856.1999671955913	-426.6129485081904	1105.4459335373379	835.4371106124121	-457.7906297488715	1136.7148576035881	818.8195924198561	-472.31508191177824	1160.5514863016801	807.1564990268674	-473.56674076402413	1178.0237475131792	799.2052437260091	-468.6404367093728	1067.8794596530638	849.979287208418	-424.42155147357755	1094.0662734123562	827.2154639415533	-452.030943102766	1117.857829384673	812.3487401681081	-463.3852001867759	1134.6409389061623	803.0869840736577	-464.1644623463679	1149.7712418119054	795.6091712293708	-459.72360533174174
